<svg width="358" height="358" viewBox="0 0 358 358" fill="none" xmlns="http://www.w3.org/2000/svg">
<path d="M293.5 75.5L263.5 106.5C274.995 121.824 279.554 130.477 285 146L178.5 146.5C162.877 172.637 163.329 187.192 178.5 213H285C279.615 229.771 274.621 238.466 263 253L293.5 284.5L321.5 288.5L344.5 249.5L327.5 228L330.5 213.5L357.5 201.5V157.5L331.5 147L327 132.5L344.5 109.5L321.5 71.5L293.5 75.5Z" fill="#FF7600" stroke="#FF7600"/>
<path d="M284 63.5L253 95.5C247.676 80.6369 159.233 40.5656 105 95C50.7667 149.434 59.2421 227.782 105 263C150.758 298.218 203.248 302.057 253 263L284 293.5L287 323L249 345L226 327L212.5 330.5L201.5 357.5H157L146 331L131 328L109 345L71 322L74.5 294L64 284L35.5 287L14 249L31 227L27.5 212.5L1 201V157L27 146L31 132L14 109L36 71L65 74L74 65L71 36L109 14L132 31L146 27.5L157 1H201.5L211.5 26.5L226 31.5L249.5 13.5L287.5 36L284 63.5Z" fill="#39494F" stroke="#39494F"/>
</svg>
